# xmcd CD database file
#
# Track frame offsets:
#	150
#	4945
#	55397
#	81319
#	104149
#	143189
#	165505
#	188818
#	210527
#	228949
#
# Disc length: 3572 seconds
#
# Revision: 0
# Processed by: cddbd v1.5.1PL0 Copyright (c) Steve Scherf et al.
# Submitted via: CDex 1.51
#
DISCID=870df20a
DTITLE=Richie Ray and Bobby Cruz - La Historia que Hace Historia CD 3
DYEAR=2004
DGENRE=Salsa
TTITLE0=Introducción a los integrantes de la Fania All Stars
TTITLE1=Ahora vengo yo
TTITLE2=Hermandad Fania
TTITLE3=40 años
TTITLE4=Celebrando el número 100
TTITLE5=Mi bandera
TTITLE6=Despedida
TTITLE7=40 años - Studio
TTITLE8=Chan Chan Ki Nih Nah - Studio
TTITLE9=Celebrando el número 100 - Studio
EXTD=YEAR: 2004
EXTT0=
EXTT1=
EXTT2=
EXTT3=
EXTT4=
EXTT5=
EXTT6=
EXTT7=
EXTT8=
EXTT9=
PLAYORDER=
